<svg xmlns="http://www.w3.org/2000/svg" width="512" height="512" viewBox="0 0 112 112" role="img" aria-label="Agent workspace animated icon: a day-to-night office timelapse with moving chairs and flickering monitor light">
  <defs>
    <clipPath id="sqclip"><rect x="-56" y="-56" width="112" height="112" rx="26"/></clipPath>
    <linearGradient id="cg" gradientUnits="userSpaceOnUse" x1="0" y1="-14.5" x2="0" y2="-46"><stop offset="0" stop-color="#CBDCFF" stop-opacity="0.9"/><stop offset="0.55" stop-color="#BFD4FF" stop-opacity="0.38"/><stop offset="1" stop-color="#BFD4FF" stop-opacity="0"/></linearGradient>
    <g id="deskset"><rect x="4.5" y="-46" width="12" height="40" rx="2.5" fill="#F2EDE0"/><rect x="4.5" y="-16.5" width="40" height="12" rx="2.5" fill="#F2EDE0"/><rect x="20" y="-14.5" width="11" height="7.5" rx="1.5" fill="#2A2F3A"/></g>
    <path id="cone" d="M21 -14.5 L30 -14.5 L39 -46 L12 -46 Z" fill="url(#cg)"/>
    <g id="chairShape"><circle r="7.5" fill="#171B21" stroke="#7E879C" stroke-width="0.8"/><rect x="-8.5" y="-13.5" width="17" height="4.5" rx="2.25" fill="#171B21" stroke="#7E879C" stroke-width="0.8"/></g>
  </defs>
  <g transform="translate(56,56)">
    <g clip-path="url(#sqclip)">
      <rect x="-56" y="-56" width="112" height="112" fill="#4A5470"/>
      <rect x="-54.7" y="-56" width="1.4" height="28" fill="#57627F"/>
      <rect x="-50.7" y="-56" width="1.4" height="28" fill="#57627F"/>
      <rect x="-46.7" y="-56" width="1.4" height="28" fill="#57627F"/>
      <rect x="-42.7" y="-56" width="1.4" height="28" fill="#57627F"/>
      <rect x="-38.7" y="-56" width="1.4" height="28" fill="#57627F"/>
      <rect x="-34.7" y="-56" width="1.4" height="28" fill="#57627F"/>
      <rect x="-30.7" y="-56" width="1.4" height="28" fill="#57627F"/>
      <rect x="-28" y="-54.7" width="28" height="1.4" fill="#57627F"/>
      <rect x="-28" y="-50.7" width="28" height="1.4" fill="#57627F"/>
      <rect x="-28" y="-46.7" width="28" height="1.4" fill="#57627F"/>
      <rect x="-28" y="-42.7" width="28" height="1.4" fill="#57627F"/>
      <rect x="-28" y="-38.7" width="28" height="1.4" fill="#57627F"/>
      <rect x="-28" y="-34.7" width="28" height="1.4" fill="#57627F"/>
      <rect x="-28" y="-30.7" width="28" height="1.4" fill="#57627F"/>
      <rect x="1.3" y="-56" width="1.4" height="28" fill="#57627F"/>
      <rect x="5.3" y="-56" width="1.4" height="28" fill="#57627F"/>
      <rect x="9.3" y="-56" width="1.4" height="28" fill="#57627F"/>
      <rect x="13.3" y="-56" width="1.4" height="28" fill="#57627F"/>
      <rect x="17.3" y="-56" width="1.4" height="28" fill="#57627F"/>
      <rect x="21.3" y="-56" width="1.4" height="28" fill="#57627F"/>
      <rect x="25.3" y="-56" width="1.4" height="28" fill="#57627F"/>
      <rect x="28" y="-54.7" width="28" height="1.4" fill="#57627F"/>
      <rect x="28" y="-50.7" width="28" height="1.4" fill="#57627F"/>
      <rect x="28" y="-46.7" width="28" height="1.4" fill="#57627F"/>
      <rect x="28" y="-42.7" width="28" height="1.4" fill="#57627F"/>
      <rect x="28" y="-38.7" width="28" height="1.4" fill="#57627F"/>
      <rect x="28" y="-34.7" width="28" height="1.4" fill="#57627F"/>
      <rect x="28" y="-30.7" width="28" height="1.4" fill="#57627F"/>
      <rect x="-56" y="-26.7" width="28" height="1.4" fill="#57627F"/>
      <rect x="-56" y="-22.7" width="28" height="1.4" fill="#57627F"/>
      <rect x="-56" y="-18.7" width="28" height="1.4" fill="#57627F"/>
      <rect x="-56" y="-14.7" width="28" height="1.4" fill="#57627F"/>
      <rect x="-56" y="-10.7" width="28" height="1.4" fill="#57627F"/>
      <rect x="-56" y="-6.7" width="28" height="1.4" fill="#57627F"/>
      <rect x="-56" y="-2.7" width="28" height="1.4" fill="#57627F"/>
      <rect x="-26.7" y="-28" width="1.4" height="28" fill="#57627F"/>
      <rect x="-22.7" y="-28" width="1.4" height="28" fill="#57627F"/>
      <rect x="-18.7" y="-28" width="1.4" height="28" fill="#57627F"/>
      <rect x="-14.7" y="-28" width="1.4" height="28" fill="#57627F"/>
      <rect x="-10.7" y="-28" width="1.4" height="28" fill="#57627F"/>
      <rect x="-6.7" y="-28" width="1.4" height="28" fill="#57627F"/>
      <rect x="-2.7" y="-28" width="1.4" height="28" fill="#57627F"/>
      <rect x="0" y="-26.7" width="28" height="1.4" fill="#57627F"/>
      <rect x="0" y="-22.7" width="28" height="1.4" fill="#57627F"/>
      <rect x="0" y="-18.7" width="28" height="1.4" fill="#57627F"/>
      <rect x="0" y="-14.7" width="28" height="1.4" fill="#57627F"/>
      <rect x="0" y="-10.7" width="28" height="1.4" fill="#57627F"/>
      <rect x="0" y="-6.7" width="28" height="1.4" fill="#57627F"/>
      <rect x="0" y="-2.7" width="28" height="1.4" fill="#57627F"/>
      <rect x="29.3" y="-28" width="1.4" height="28" fill="#57627F"/>
      <rect x="33.3" y="-28" width="1.4" height="28" fill="#57627F"/>
      <rect x="37.3" y="-28" width="1.4" height="28" fill="#57627F"/>
      <rect x="41.3" y="-28" width="1.4" height="28" fill="#57627F"/>
      <rect x="45.3" y="-28" width="1.4" height="28" fill="#57627F"/>
      <rect x="49.3" y="-28" width="1.4" height="28" fill="#57627F"/>
      <rect x="53.3" y="-28" width="1.4" height="28" fill="#57627F"/>
      <rect x="-54.7" y="0" width="1.4" height="28" fill="#57627F"/>
      <rect x="-50.7" y="0" width="1.4" height="28" fill="#57627F"/>
      <rect x="-46.7" y="0" width="1.4" height="28" fill="#57627F"/>
      <rect x="-42.7" y="0" width="1.4" height="28" fill="#57627F"/>
      <rect x="-38.7" y="0" width="1.4" height="28" fill="#57627F"/>
      <rect x="-34.7" y="0" width="1.4" height="28" fill="#57627F"/>
      <rect x="-30.7" y="0" width="1.4" height="28" fill="#57627F"/>
      <rect x="-28" y="1.3" width="28" height="1.4" fill="#57627F"/>
      <rect x="-28" y="5.3" width="28" height="1.4" fill="#57627F"/>
      <rect x="-28" y="9.3" width="28" height="1.4" fill="#57627F"/>
      <rect x="-28" y="13.3" width="28" height="1.4" fill="#57627F"/>
      <rect x="-28" y="17.3" width="28" height="1.4" fill="#57627F"/>
      <rect x="-28" y="21.3" width="28" height="1.4" fill="#57627F"/>
      <rect x="-28" y="25.3" width="28" height="1.4" fill="#57627F"/>
      <rect x="1.3" y="0" width="1.4" height="28" fill="#57627F"/>
      <rect x="5.3" y="0" width="1.4" height="28" fill="#57627F"/>
      <rect x="9.3" y="0" width="1.4" height="28" fill="#57627F"/>
      <rect x="13.3" y="0" width="1.4" height="28" fill="#57627F"/>
      <rect x="17.3" y="0" width="1.4" height="28" fill="#57627F"/>
      <rect x="21.3" y="0" width="1.4" height="28" fill="#57627F"/>
      <rect x="25.3" y="0" width="1.4" height="28" fill="#57627F"/>
      <rect x="28" y="1.3" width="28" height="1.4" fill="#57627F"/>
      <rect x="28" y="5.3" width="28" height="1.4" fill="#57627F"/>
      <rect x="28" y="9.3" width="28" height="1.4" fill="#57627F"/>
      <rect x="28" y="13.3" width="28" height="1.4" fill="#57627F"/>
      <rect x="28" y="17.3" width="28" height="1.4" fill="#57627F"/>
      <rect x="28" y="21.3" width="28" height="1.4" fill="#57627F"/>
      <rect x="28" y="25.3" width="28" height="1.4" fill="#57627F"/>
      <rect x="-56" y="29.3" width="28" height="1.4" fill="#57627F"/>
      <rect x="-56" y="33.3" width="28" height="1.4" fill="#57627F"/>
      <rect x="-56" y="37.3" width="28" height="1.4" fill="#57627F"/>
      <rect x="-56" y="41.3" width="28" height="1.4" fill="#57627F"/>
      <rect x="-56" y="45.3" width="28" height="1.4" fill="#57627F"/>
      <rect x="-56" y="49.3" width="28" height="1.4" fill="#57627F"/>
      <rect x="-56" y="53.3" width="28" height="1.4" fill="#57627F"/>
      <rect x="-26.7" y="28" width="1.4" height="28" fill="#57627F"/>
      <rect x="-22.7" y="28" width="1.4" height="28" fill="#57627F"/>
      <rect x="-18.7" y="28" width="1.4" height="28" fill="#57627F"/>
      <rect x="-14.7" y="28" width="1.4" height="28" fill="#57627F"/>
      <rect x="-10.7" y="28" width="1.4" height="28" fill="#57627F"/>
      <rect x="-6.7" y="28" width="1.4" height="28" fill="#57627F"/>
      <rect x="-2.7" y="28" width="1.4" height="28" fill="#57627F"/>
      <rect x="0" y="29.3" width="28" height="1.4" fill="#57627F"/>
      <rect x="0" y="33.3" width="28" height="1.4" fill="#57627F"/>
      <rect x="0" y="37.3" width="28" height="1.4" fill="#57627F"/>
      <rect x="0" y="41.3" width="28" height="1.4" fill="#57627F"/>
      <rect x="0" y="45.3" width="28" height="1.4" fill="#57627F"/>
      <rect x="0" y="49.3" width="28" height="1.4" fill="#57627F"/>
      <rect x="0" y="53.3" width="28" height="1.4" fill="#57627F"/>
      <rect x="29.3" y="28" width="1.4" height="28" fill="#57627F"/>
      <rect x="33.3" y="28" width="1.4" height="28" fill="#57627F"/>
      <rect x="37.3" y="28" width="1.4" height="28" fill="#57627F"/>
      <rect x="41.3" y="28" width="1.4" height="28" fill="#57627F"/>
      <rect x="45.3" y="28" width="1.4" height="28" fill="#57627F"/>
      <rect x="49.3" y="28" width="1.4" height="28" fill="#57627F"/>
      <rect x="53.3" y="28" width="1.4" height="28" fill="#57627F"/>
      <line x1="-56" y1="0" x2="56" y2="0" stroke="#232A3A" stroke-width="5.5"/>
      <line x1="0" y1="-56" x2="0" y2="56" stroke="#232A3A" stroke-width="5.5"/>
    </g>
    <g transform="rotate(0)"><use href="#deskset"/></g>
    <g transform="rotate(90)"><use href="#deskset"/></g>
    <g transform="rotate(180)"><use href="#deskset"/></g>
    <g transform="rotate(270)"><use href="#deskset"/></g>
    <g transform="rotate(0)"><g transform="translate(31,-31) rotate(45)"><g><animateTransform attributeName="transform" type="translate" values="0 0;0 5.8;0 5.8;0 -2.7;0 -2.7;0 4.7;0 4.7;0 -3.4;0 -3.4;0 5.2;0 5.2;0 0" keyTimes="0;0.048;0.187;0.225;0.337;0.379;0.456;0.487;0.785;0.82;0.953;1" dur="16s" begin="-3s" repeatCount="indefinite"/><g><animateTransform attributeName="transform" type="rotate" values="0;0;10.9;1.1;1.1;9.2;9.2;9.2;10.3;10.6;1.3;0;0;3.2;2.3;2.3;-1.3;-1.3;-0.3;0;0;-1.4;4.2;5.5;-1.2;-1.2;0;0;187;180;180;0;0;3.4;1.8;1.8;4.2;4.2;2.9;3.5;3.5;1.1;0;0" keyTimes="0;0.048;0.066;0.078;0.09;0.113;0.132;0.152;0.161;0.173;0.181;0.187;0.225;0.243;0.263;0.281;0.299;0.317;0.33;0.337;0.379;0.393;0.41;0.431;0.441;0.448;0.456;0.487;0.553;0.573;0.717;0.785;0.82;0.831;0.847;0.868;0.883;0.894;0.906;0.917;0.933;0.945;0.953;1" dur="16s" begin="-3s" repeatCount="indefinite"/><use href="#chairShape"/></g></g></g></g>
    <g transform="rotate(90)"><g transform="translate(31,-31) rotate(45)"><g><animateTransform attributeName="transform" type="translate" values="0 0;0 5.8;0 5.8;0 -1.9;0 -1.9;0 4.2;0 4.2;0 -3.4;0 -3.4;0 4.9;0 4.9;0 0" keyTimes="0;0.052;0.174;0.237;0.339;0.379;0.462;0.494;0.785;0.826;0.957;1" dur="13s" begin="-7.5s" repeatCount="indefinite"/><g><animateTransform attributeName="transform" type="rotate" values="0;0;-2.6;-2.6;-6.7;-3.2;-3.2;-0.3;0;0;1.6;5.3;5.3;9.6;0.7;0;0;7.7;-4.6;-5.9;-6.5;-0.6;0;0;-186;-180;-180;0;0;7.7;-6.5;-6.5;-2;9.1;9.1;7;0.8;0;0" keyTimes="0;0.052;0.066;0.089;0.108;0.125;0.145;0.167;0.174;0.237;0.257;0.277;0.295;0.312;0.335;0.339;0.379;0.392;0.414;0.431;0.446;0.456;0.462;0.494;0.548;0.568;0.724;0.785;0.826;0.839;0.858;0.867;0.887;0.901;0.921;0.934;0.951;0.957;1" dur="13s" begin="-7.5s" repeatCount="indefinite"/><use href="#chairShape"/></g></g></g></g>
    <g transform="rotate(180)"><g transform="translate(31,-31) rotate(45)"><g><animateTransform attributeName="transform" type="translate" values="0 0;0 5;0 5;0 -2.6;0 -2.6;0 4.4;0 4.4;0 -2.7;0 -2.7;0 5;0 5;0 0" keyTimes="0;0.047;0.174;0.237;0.338;0.375;0.467;0.483;0.784;0.818;0.955;1" dur="18.5s" begin="-11s" repeatCount="indefinite"/><g><animateTransform attributeName="transform" type="rotate" values="0;0;-2.2;-2.2;-2.2;-6.2;-5.5;-3.6;0.3;0;0;-7.5;-11.7;-6.9;1.1;3.2;0.6;0;0;6.9;4;2;2;-1.7;-0;0;0;187;180;180;0;0;-2.3;-2.6;2.5;-6;-6;-6;-1.4;0;0" keyTimes="0;0.047;0.059;0.07;0.093;0.114;0.131;0.154;0.165;0.174;0.237;0.254;0.269;0.288;0.303;0.313;0.333;0.338;0.375;0.387;0.398;0.407;0.428;0.449;0.46;0.467;0.483;0.534;0.554;0.726;0.784;0.818;0.828;0.848;0.872;0.888;0.911;0.931;0.95;0.955;1" dur="18.5s" begin="-11s" repeatCount="indefinite"/><use href="#chairShape"/></g></g></g></g>
    <g transform="rotate(270)"><g transform="translate(31,-31) rotate(45)"><g><animateTransform attributeName="transform" type="translate" values="0 0;0 5.2;0 5.2;0 -2.1;0 -2.1;0 4.6;0 4.6;0 -3.1;0 -3.1;0 4.7;0 4.7;0 0" keyTimes="0;0.056;0.176;0.233;0.333;0.372;0.452;0.492;0.786;0.819;0.965;1" dur="14.5s" begin="-1.8s" repeatCount="indefinite"/><g><animateTransform attributeName="transform" type="rotate" values="0;0;-4.2;-4.7;-3.3;-4.2;1.4;1.4;-8.4;1.4;0;0;7.5;7.3;6.5;6.5;2.8;-0.5;0;0;-6.9;-1.4;-5;-2.3;1.1;0;0;-187;-180;-180;0;0;2.2;3.1;8.1;-7.5;-7.5;2.8;1.1;0;0" keyTimes="0;0.056;0.075;0.084;0.093;0.105;0.122;0.136;0.158;0.172;0.176;0.233;0.246;0.263;0.281;0.301;0.316;0.325;0.333;0.372;0.395;0.406;0.419;0.429;0.447;0.452;0.492;0.551;0.571;0.722;0.786;0.819;0.841;0.86;0.876;0.899;0.918;0.933;0.959;0.965;1" dur="14.5s" begin="-1.8s" repeatCount="indefinite"/><use href="#chairShape"/></g></g></g></g>
    <rect x="-56" y="-56" width="112" height="112" rx="26" fill="#FFEFD2" opacity="0.16"><animate attributeName="opacity" values="0.16;0.11;0.02;0;0;0;0.12;0.16" keyTimes="0;0.18;0.32;0.42;0.6;0.84;0.95;1" dur="14s" repeatCount="indefinite"/></rect>
    <rect x="-56" y="-56" width="112" height="112" rx="26" fill="#0A0E1A" opacity="0"><animate attributeName="opacity" values="0;0.05;0.32;0.58;0.63;0.63;0.25;0" keyTimes="0;0.2;0.35;0.48;0.6;0.82;0.94;1" dur="14s" repeatCount="indefinite"/></rect>
    <g opacity="0"><animate attributeName="opacity" values="0;0;0.25;0.9;1;1;0.15;0" keyTimes="0;0.25;0.38;0.5;0.6;0.82;0.93;1" dur="14s" repeatCount="indefinite"/>
      <g transform="rotate(0)"><animate attributeName="opacity" values="0.85;1;0.65;0.95;0.72;1;0.8;0.9;0.85" dur="0.5s" begin="-0.1s" repeatCount="indefinite"/><use href="#cone"/></g>
      <g transform="rotate(90)"><animate attributeName="opacity" values="0.85;1;0.65;0.95;0.72;1;0.8;0.9;0.85" dur="0.63s" begin="-0.3s" repeatCount="indefinite"/><use href="#cone"/></g>
      <g transform="rotate(180)"><animate attributeName="opacity" values="0.85;1;0.65;0.95;0.72;1;0.8;0.9;0.85" dur="0.44s" begin="-0.2s" repeatCount="indefinite"/><use href="#cone"/></g>
      <g transform="rotate(270)"><animate attributeName="opacity" values="0.85;1;0.65;0.95;0.72;1;0.8;0.9;0.85" dur="0.71s" begin="-0.05s" repeatCount="indefinite"/><use href="#cone"/></g>
    </g>
    <rect x="-54.75" y="-54.75" width="109.5" height="109.5" rx="24.75" fill="none" stroke="#007ACC" stroke-width="2.5"/>
  </g>
</svg>
